<svg width="18" height="12" fill="none" xmlns="http://www.w3.org/2000/svg"><path d="M8.925 8.671c0 .411-.103.822-.309 1.233-.205.308-.41.617-.719.822-.308.205-.719.41-1.13.514-.41.102-.822.205-1.336.205H.191V.657h5.754c.411 0 .72.103 1.028.206.308.205.513.41.822.616.205.309.41.514.513.925.103.308.206.616.206 1.027 0 .514-.103 1.028-.411 1.439-.308.513-.617.822-1.13 1.027.616.206 1.13.514 1.438 1.028.308.513.514 1.13.514 1.746zM2.247 2.507V5.28H5.02c.308 0 .616-.103.924-.411a1.57 1.57 0 0 0 .411-1.028c0-.41-.103-.719-.308-1.027-.206-.205-.514-.411-.822-.411h-2.98v.103zm4.52 5.856c0-.206 0-.411-.103-.514-.102-.205-.205-.308-.308-.513a1.418 1.418 0 0 0-.41-.309c-.104-.102-.309-.102-.515-.102H2.247V9.8h3.082c.205 0 .41 0 .513-.102.206-.103.309-.206.411-.309.103-.102.206-.308.309-.41.205-.309.205-.412.205-.617zm6.678 3.185c-.616 0-1.233-.103-1.644-.308-1.027-.411-1.746-1.13-2.054-2.158a4.123 4.123 0 0 1-.309-1.541c0-.514.103-1.027.309-1.541.41-1.027 1.13-1.747 2.054-2.158.514-.205 1.028-.308 1.747-.308.616 0 1.233.103 1.644.308 1.644.72 2.363 2.26 2.363 4.007v.308h-5.96c0 .309.104.617.206.822.103.206.309.411.411.617.206.205.411.308.617.41.205.104.513.104.719.104.41 0 .72-.103 1.13-.309.308-.205.616-.41.72-.719l1.746.514c-.308.616-.72 1.027-1.336 1.438-.719.308-1.54.514-2.363.514zM15.5 6.822c0-.617-.308-1.028-.616-1.439-.411-.308-.822-.513-1.336-.513-.308 0-.514 0-.72.103-.205.102-.41.205-.616.41-.205.206-.308.411-.41.617a1.935 1.935 0 0 0-.206.822H15.5zm-4.623-5.651h5.137v1.336h-5.137V1.17z" fill="#fff"/></svg>