<svg width="18" height="18" fill="none" xmlns="http://www.w3.org/2000/svg"><path d="M9 .575C4.377.575.575 4.377.575 9c0 4.623 3.802 8.424 8.425 8.424 4.623 0 8.425-3.8 8.425-8.424C17.425 4.377 13.623.575 9 .575zm5.548 4.007c.925 1.233 1.541 2.671 1.541 4.315-.308-.103-1.644-.308-3.288-.308-.513 0-1.027 0-1.643.103 0-.103-.103-.206-.103-.309-.103-.308-.308-.719-.411-1.027 2.466-1.027 3.596-2.466 3.904-2.774zM9 1.911c1.85 0 3.493.719 4.726 1.746-.206.309-1.233 1.644-3.699 2.569a35.759 35.759 0 0 0-2.67-4.11C7.87 2.014 8.383 1.911 9 1.911zm-3.082.719c.205.308 1.438 2.055 2.568 4.11-3.082.821-5.753.821-6.472.821H1.91c.514-2.26 2.055-4.006 4.007-4.931zM1.808 9v-.206h.206c.924 0 4.007-.102 7.089-1.027.205.41.41.72.513 1.13-.102 0-.205 0-.205.103-3.596 1.13-5.548 4.212-5.856 4.726C2.527 12.493 1.808 10.849 1.808 9zM9 16.192c-1.644 0-3.185-.514-4.315-1.439.205-.41 1.644-3.082 5.548-4.418 1.027 2.569 1.438 4.726 1.54 5.343-.924.308-1.848.514-2.773.514zm4.007-1.336a42.38 42.38 0 0 0-1.336-5.034c.514-.103 1.028-.103 1.439-.103 1.54 0 2.67.308 2.979.411-.41 2.055-1.541 3.699-3.082 4.726z" fill="#fff"/></svg>