<svg width="20" height="20" fill="none" xmlns="http://www.w3.org/2000/svg"><path d="M15.137 3.836a1.14 1.14 0 0 0-1.13 1.13c0 .616.514 1.13 1.13 1.13a1.14 1.14 0 0 0 1.13-1.13 1.14 1.14 0 0 0-1.13-1.13zm-5.034 1.438A4.713 4.713 0 0 0 5.377 10a4.713 4.713 0 0 0 4.726 4.726A4.713 4.713 0 0 0 14.829 10a4.713 4.713 0 0 0-4.726-4.726zm0 7.808c-1.644 0-3.082-1.336-3.082-3.082 0-1.747 1.335-3.082 3.082-3.082 1.644 0 3.082 1.335 3.082 3.082 0 1.746-1.438 3.082-3.082 3.082z" fill="#fff"/><path d="M13.904 19.658H6.2a5.744 5.744 0 0 1-5.754-5.754V6.2A5.744 5.744 0 0 1 6.2.445h7.705A5.744 5.744 0 0 1 19.658 6.2v7.705a5.744 5.744 0 0 1-5.754 5.754zM6.2 2.192c-2.158 0-4.007 1.746-4.007 4.007v7.705c0 2.158 1.746 4.007 4.007 4.007h7.705c2.158 0 4.007-1.747 4.007-4.007V6.2c0-2.158-1.747-4.007-4.007-4.007H6.2z" fill="#fff"/></svg>