<svg width="17" height="14" fill="none" xmlns="http://www.w3.org/2000/svg"><path d="M16.322 1.863c-.514.205-1.13.41-1.644.514.308 0 .616-.514.822-.72.206-.308.411-.616.514-1.027V.527h-.103c-.617.308-1.233.617-1.952.72h-.103l-.205-.206-.925-.617c-.41-.205-.925-.308-1.438-.205-.514 0-.925.205-1.336.411a3.212 3.212 0 0 0-1.13.925 3.184 3.184 0 0 0-.617 1.335 3.395 3.395 0 0 0 0 1.439c0 .102 0 .102-.102.102-2.672-.41-4.932-1.335-6.781-3.39-.103-.103-.103-.103-.206 0-.821 1.233-.41 3.082.617 4.007.103.103.308.205.41.41-.102 0-.718-.102-1.335-.41-.103 0-.103 0-.103.103v.41c.103 1.233 1.028 2.363 2.158 2.774.103.103.308.103.411.103-.308.103-.514.103-1.233 0-.103 0-.103 0-.103.103.514 1.541 1.747 1.952 2.672 2.26h.41c-.308.411-1.335.822-1.849.925-.924.308-1.85.41-2.774.308H.192v.103l.616.308c.617.308 1.233.617 1.85.72 3.39.924 7.089.205 9.657-2.261 1.952-1.952 2.671-4.623 2.671-7.397a.22.22 0 0 1 .206-.206 8.214 8.214 0 0 0 1.335-1.335c-.102.102-.102 0-.205-.103.103 0 .103 0 0 0 .103 0 .103 0 0 0z" fill="#fff"/></svg>